<?xml version="1.0" encoding="UTF-8" standalone="no"?>
<!-- Created with Inkscape (http://www.inkscape.org/) -->

<svg viewBox="0 0 109.81609 124.83353" version="1.1" id="svg5"
   xmlns="http://www.w3.org/2000/svg">
   <defs id="defs2" />
   <g id="layer1" transform="translate(-180.55638,198.34613)">
      <g id="path846">
         <g id="g21972" transform="rotate(32.649644,181.72291,124.47143)">
            <g id="g5080" style="fill:#21232e;fill-opacity:1">
               <path id="path4184" style="fill:#21232e;fill-opacity:1;stroke:none;stroke-width:3.99999;stroke-linecap:square" d="M 177.12891 133.38281 A 169.30219 169.30219 0 0 0 26.751953 211.16602 A 169.30219 169.30219 0 0 0 77.964844 445.05469 A 169.30219 169.30219 0 0 0 77.966797 445.05664 A 169.30219 169.30219 0 0 0 77.970703 445.05859 A 169.30219 169.30219 0 0 0 311.85938 393.84766 A 169.30219 169.30219 0 0 0 260.64844 159.95898 A 169.30219 169.30219 0 0 0 260.64453 159.95703 A 169.30219 169.30219 0 0 0 260.64258 159.95508 A 169.30219 169.30219 0 0 0 177.12891 133.38281 z " transform="matrix(0.22277527,-0.14274285,0.14274285,0.22277527,6.5804653,-146.70685)" />
            </g>
            <path id="rect5326" style="fill:#21232e;fill-opacity:1;stroke:none;stroke-width:3.99999;stroke-linecap:square" d="M 226.46094 106.61914 L 201.75586 145.17383 L 250.21484 176.22461 L 298.67578 207.27539 L 323.37891 168.7207 L 274.91992 137.66992 L 226.46094 106.61914 z " transform="matrix(0.22277527,-0.14274285,0.14274285,0.22277527,6.5804653,-146.70685)" />
            <g id="g13583" transform="matrix(1.4183402,0.05057785,-0.01779933,0.49914145,-39.198866,-82.225083)">
               <path id="rect13297" style="fill:#c0b369;fill-opacity:1;stroke:none;stroke-width:1.47775;stroke-linecap:square" d="m 84.735727,-205.55488 -0.895298,50.73246 3.02556,-0.32123 3.02556,-0.32122 0.895299,-50.73246 -3.02556,0.32123 z" />
            </g>
            <g id="g21946" transform="matrix(2.2802811,0,0,2.2802811,-112.12209,228.33001)">
               <path style="fill:#ef4e39;fill-opacity:1;stroke:none;stroke-width:0.265;stroke-linecap:butt;stroke-linejoin:round;stroke-miterlimit:4;stroke-dasharray:none;stroke-opacity:1" d="m 87.532745,-173.31091 -8.169721,4.19209 2.55651,-7.66954 -3.973709,-4.11265 7.530597,-1.50056 5.029659,-5.68268 2.167478,6.07172 5.502058,0.50018 -6.030035,4.36274 3.529099,6.55801 z" id="path14923" />
            </g>
         </g>
      </g>
   </g>
</svg>
