<svg viewBox="0 0 85.420105 101.64944" version="1.1" id="svg5"
   xmlns="http://www.w3.org/2000/svg">
   <defs id="defs2" />
   <g id="layer1" transform="translate(-58.319075,-108.90458)">
      <path id="path824" style="fill:#ffffff;stroke-width:0.194562" d="m 100.98107,108.90493 c -0.47058,0.005 -0.95,0.0699 -1.431438,0.19998 l -36.608617,9.87537 c -2.717038,0.73259 -4.62194,3.36501 -4.62194,6.38669 v 72.48084 12.70621 h 48.811495 v -95.0619 c 0,-3.74881 -2.85543,-6.62399 -6.1495,-6.58719 z m 12.25093,12.70568 v 12.7062 h 18.30431 v 76.23721 h 12.20287 V 197.84781 131.4281 c 0,-5.41203 -4.10539,-9.81749 -9.15241,-9.81749 z m -22.880256,31.7655 c 2.526369,0 4.575948,2.84502 4.575948,6.3531 0,3.50808 -2.049579,6.35309 -4.575948,6.35309 -2.526371,0 -4.575947,-2.84501 -4.575947,-6.35309 0,-3.50808 2.049576,-6.3531 4.575947,-6.3531 z" />
   </g>
</svg>
