<?xml version="1.0" encoding="UTF-8" standalone="no"?>
<!-- Created with Inkscape (http://www.inkscape.org/) -->

<svg viewBox="0 0 190.06741 190.06741" version="1.1" id="svg5"
   xmlns="http://www.w3.org/2000/svg"
   xmlnsSvg="http://www.w3.org/2000/svg">
   <defs id="defs2" />
   <g id="layer1" transform="translate(-10.060394,-65.392556)">
      <path id="path824" d="m 105.0941,172.30548 c 29.51241,0 53.45645,-23.94404 53.45645,-53.45646 0,-29.512424 -23.94404,-53.456464 -53.45645,-53.456464 -29.512421,0 -53.45646,23.94404 -53.45646,53.456464 0,29.51242 23.944039,53.45646 53.45646,53.45646 z m 47.51685,11.87921 h -20.45452 c -8.24121,3.7865 -17.41047,5.93961 -27.06233,5.93961 -9.651862,0 -18.784007,-2.15311 -27.062334,-5.93961 h -20.45452 c -26.245636,0 -47.516852,21.27122 -47.516852,47.51685 v 5.93961 c 0,9.83747 7.981346,17.81882 17.81882,17.81882 H 182.30898 c 9.83747,0 17.81882,-7.98135 17.81882,-17.81882 v -5.93961 c 0,-26.24563 -21.27122,-47.51685 -47.51685,-47.51685 z" style="stroke-width:0.371225" />
   </g>
</svg>
